<svg id="visual" viewBox="0 0 540 960" width="540" height="960" xmlns="http://www.w3.org/2000/svg" xmlns:xlink="http://www.w3.org/1999/xlink" version="1.1"><rect x="0" y="0" width="540" height="960" fill="#001220"></rect><defs><linearGradient id="grad1_0" x1="0%" y1="0%" x2="100%" y2="100%"><stop offset="30%" stop-color="#001220" stop-opacity="1"></stop><stop offset="70%" stop-color="#001220" stop-opacity="1"></stop></linearGradient></defs><defs><linearGradient id="grad2_0" x1="0%" y1="0%" x2="100%" y2="100%"><stop offset="30%" stop-color="#001220" stop-opacity="1"></stop><stop offset="70%" stop-color="#001220" stop-opacity="1"></stop></linearGradient></defs><g transform="translate(540, 0)"><path d="M0 459C-72.9 435.1 -145.9 411.1 -217 375.9C-288.1 340.6 -357.5 294 -397.5 229.5C-437.5 165 -448.3 82.5 -459 0L0 0Z" fill="#FBAE3C"></path></g><g transform="translate(0, 960)"><path d="M0 -459C86.8 -450.7 173.5 -442.5 229.5 -397.5C285.5 -352.5 310.7 -270.9 343.8 -198.5C376.9 -126.1 418 -63.1 459 0L0 0Z" fill="#FBAE3C"></path></g></svg>